<svg xmlns="http://www.w3.org/2000/svg" width="1200" height="800" viewBox="0 0 1200 800" fill="none">
  <rect width="1200" height="800" fill="#F8F5EF"/>
  <rect x="120" y="100" width="960" height="600" rx="36" fill="white" stroke="#0D1B2A" stroke-opacity="0.08" stroke-width="2"/>
  <rect x="180" y="164" width="840" height="78" rx="16" fill="#1D3557" fill-opacity="0.12"/>
  <rect x="180" y="280" width="390" height="350" rx="20" fill="#F3ECE0"/>
  <rect x="610" y="280" width="410" height="150" rx="20" fill="#F1E7D6"/>
  <rect x="640" y="318" width="220" height="24" rx="10" fill="#0D1B2A" fill-opacity="0.14"/>
  <rect x="640" y="354" width="170" height="16" rx="8" fill="#0D1B2A" fill-opacity="0.1"/>
  <rect x="610" y="452" width="410" height="178" rx="20" fill="#F7F3EB"/>
  <path d="M700 580l40-54 38 32 56-78 70 100H700Z" fill="#1D3557" fill-opacity="0.3"/>
  <circle cx="220" cy="204" r="9" fill="#1D3557" fill-opacity="0.35"/>
  <circle cx="250" cy="204" r="9" fill="#1D3557" fill-opacity="0.22"/>
  <circle cx="280" cy="204" r="9" fill="#1D3557" fill-opacity="0.15"/>
  <text x="182" y="744" fill="#1D3557" fill-opacity="0.55" font-size="34" font-family="Arial, sans-serif">Business Websites</text>
</svg>
